# Blender v3.5.0 OBJ File: ''
# www.blender.org
mtllib garbage_can.mtl
o Cube.001
v 1.896950 0.023197 1.211312
v 1.996060 0.022378 1.211484
v 1.950303 0.021273 1.268711
v 1.897191 0.022251 1.303926
v 1.996060 2.722511 1.211484
v 1.950303 2.723616 1.268711
v 1.895711 0.028055 -1.297868
v 1.895711 2.716835 -1.297868
v 1.950733 2.716835 -1.260175
v 1.950733 0.028055 -1.260175
v 2.012916 0.028055 -0.756312
v 2.112136 2.716835 -0.756312
v 2.112136 2.716835 0.735344
v 2.012916 0.028055 0.735344
v 1.895711 0.028055 -0.756312
v 1.994612 0.028055 -0.756312
v 1.994612 0.028055 0.735344
v 1.895711 0.028055 0.735344
v 1.895711 0.028055 -1.212184
v 1.994612 0.028055 -1.212184
v 1.994612 2.716835 -1.212184
v 1.994612 2.716835 -0.756312
v 1.994612 2.716835 0.735344
v 0.000000 0.028055 -1.212184
v 1.308898 0.028055 -1.212184
v 1.308898 0.028055 -0.756312
v 0.000000 0.028055 -0.756312
v 1.895711 2.794819 -1.212184
v 1.308898 2.794819 -1.212184
v 1.308898 2.794819 -0.756312
v 1.895711 2.794819 -0.756312
v 1.308898 2.794819 0.735344
v 1.895711 2.794819 0.735344
v 1.308898 0.028055 0.735344
v 0.000000 0.028055 0.735344
v 0.000000 0.028055 -1.352280
v 0.000000 2.716835 -1.432650
v 1.308898 2.716835 -1.432650
v 1.308898 0.028055 -1.352280
v 0.000000 0.028055 1.210286
v 1.308898 0.028055 1.210286
v 1.308898 0.028055 1.302701
v 0.000000 0.028055 1.302701
v 1.897191 2.722638 1.303926
v 1.308898 2.716835 1.302701
v 1.896950 2.799677 1.211312
v 1.308898 2.794819 1.210286
v 1.298147 2.794819 1.302701
v 1.897191 2.800622 1.303926
v 0.000000 2.716835 1.428016
v 1.308898 2.716835 1.428016
v 0.000000 2.716835 1.302701
v 1.308898 0.028055 1.329218
v 1.308898 0.028055 -1.297868
v 0.000000 0.028055 -1.297868
v 1.308898 2.716835 -1.297868
v 1.996060 2.800495 1.211484
v 1.950303 2.801600 1.268711
v 1.994612 2.794819 -0.756312
v 1.994612 2.794819 0.735344
v 1.994612 2.794819 -1.212184
v 1.950733 2.794819 -1.260175
v 1.895711 2.794819 -1.297868
v 1.308898 2.794819 -1.297868
v 2.155011 2.800495 1.211484
v 2.109254 2.801600 1.454226
v 2.109254 2.723616 1.454226
v 2.155011 2.722511 1.211484
v 1.895711 2.794819 -1.329728
v 2.109684 2.794819 -1.292035
v 2.109684 2.716835 -1.292035
v 1.895711 2.716835 -1.329728
v 2.153563 2.794819 -0.756312
v 2.153563 2.794819 0.735344
v 2.153563 2.716835 0.735344
v 2.153563 2.716835 -0.756312
v 2.153563 2.794819 -1.212184
v 2.153563 2.716835 -1.212184
v 1.897191 2.800622 1.489441
v 1.308898 2.794819 1.488216
v 1.308898 2.716835 1.488216
v 1.897191 2.722638 1.489441
v 0.000000 2.794819 -1.464510
v 1.326060 2.794819 -1.464510
v 1.326060 2.716835 -1.464510
v 0.000000 2.716835 -1.464510
v 1.326060 2.794819 -1.329728
v 1.326060 2.716835 -1.329728
v 0.000000 2.843262 1.334333
v 1.259067 2.843262 1.334333
v 1.248316 2.843262 1.302701
v 0.000000 2.843262 1.302701
v 1.308898 2.794819 -1.432650
v 1.248316 2.843262 -1.212184
v 1.248316 2.843262 -0.756312
v 1.248316 2.843262 0.735344
v 1.248316 2.843262 1.210286
v 1.248316 2.843262 -1.297868
v 1.248316 2.843262 -1.432650
v 0.000000 2.843262 -1.464510
v 1.248316 2.843262 -1.464510
v 0.000000 2.794819 1.488216
v 0.000000 2.716835 1.488216
v 0.000000 2.843262 -1.432650
v 0.000000 2.843262 1.210286
v 0.000000 0.028055 1.329218
v 0.000000 2.843262 -1.212184
v 0.000000 2.843262 -0.756312
v 0.000000 2.843262 0.735344
v 0.000000 2.843262 -1.297868
v -1.896950 0.023197 1.211312
v -1.897191 0.022251 1.303926
v -1.950303 0.021273 1.268711
v -1.996060 0.022378 1.211484
v -1.950303 2.723616 1.268711
v -1.996060 2.722511 1.211484
v -1.895711 0.028055 -1.297868
v -1.950733 0.028055 -1.260175
v -1.950733 2.716835 -1.260175
v -1.895711 2.716835 -1.297868
v -2.012916 0.028055 -0.756312
v -2.012916 0.028055 0.735344
v -2.112136 2.716835 0.735344
v -2.112136 2.716835 -0.756312
v -1.895711 0.028055 -0.756312
v -1.895711 0.028055 0.735344
v -1.994612 0.028055 0.735344
v -1.994612 0.028055 -0.756312
v -1.895711 0.028055 -1.212184
v -1.994612 0.028055 -1.212184
v -1.994612 2.716835 -0.756312
v -1.994612 2.716835 -1.212184
v -1.994612 2.716835 0.735344
v -1.308898 0.028055 -0.756312
v -1.308898 0.028055 -1.212184
v -1.895711 2.794819 -1.212184
v -1.895711 2.794819 -0.756312
v -1.308898 2.794819 -0.756312
v -1.308898 2.794819 -1.212184
v -1.895711 2.794819 0.735344
v -1.308898 2.794819 0.735344
v -1.308898 0.028055 0.735344
v -1.308898 0.028055 -1.352280
v -1.308898 2.716835 -1.432650
v -1.308898 0.028055 1.302701
v -1.308898 0.028055 1.210286
v -1.308898 2.716835 1.302701
v -1.897191 2.722638 1.303926
v -1.896950 2.799677 1.211312
v -1.897191 2.800622 1.303926
v -1.298147 2.794819 1.302701
v -1.308898 2.794819 1.210286
v -1.308898 2.716835 1.428016
v -1.308898 0.028055 1.329218
v -1.308898 0.028055 -1.297868
v -1.308898 2.716835 -1.297868
v -1.996060 2.800495 1.211484
v -1.950303 2.801600 1.268711
v -1.994612 2.794819 -0.756312
v -1.994612 2.794819 0.735344
v -1.994612 2.794819 -1.212184
v -1.950733 2.794819 -1.260175
v -1.895711 2.794819 -1.297868
v -1.308898 2.794819 -1.297868
v -2.155011 2.800495 1.211484
v -2.155011 2.722511 1.211484
v -2.109254 2.723616 1.454226
v -2.109254 2.801600 1.454226
v -1.895711 2.794819 -1.329728
v -1.895711 2.716835 -1.329728
v -2.109684 2.716835 -1.292035
v -2.109684 2.794819 -1.292035
v -2.153563 2.794819 -0.756312
v -2.153563 2.716835 -0.756312
v -2.153563 2.716835 0.735344
v -2.153563 2.794819 0.735344
v -2.153563 2.794819 -1.212184
v -2.153563 2.716835 -1.212184
v -1.897191 2.800622 1.489441
v -1.897191 2.722638 1.489441
v -1.308898 2.716835 1.488216
v -1.308898 2.794819 1.488216
v -1.326060 2.716835 -1.464510
v -1.326060 2.794819 -1.464510
v -1.326060 2.716835 -1.329728
v -1.326060 2.794819 -1.329728
v -1.248316 2.843262 1.302701
v -1.259067 2.843262 1.334333
v -1.308898 2.794819 -1.432650
v -1.248316 2.843262 -1.212184
v -1.248316 2.843262 -0.756312
v -1.248316 2.843262 0.735344
v -1.248316 2.843262 1.210286
v -1.248316 2.843262 -1.297868
v -1.248316 2.843262 -1.432650
v -1.248316 2.843262 -1.464510
vt 0.362637 0.741116
vt 0.375000 0.741116
vt 0.375000 0.750000
vt 0.362637 0.750000
vt 0.625000 0.741116
vt 0.625000 0.750000
vt 0.375000 0.487637
vt 0.625000 0.487637
vt 0.625000 0.500000
vt 0.375000 0.500000
vt 0.375000 0.552061
vt 0.625000 0.552061
vt 0.625000 0.695458
vt 0.375000 0.695458
vt 0.362637 0.552061
vt 0.375000 0.552061
vt 0.375000 0.695458
vt 0.362637 0.695458
vt 0.362637 0.508237
vt 0.375000 0.508237
vt 0.625000 0.508237
vt 0.625000 0.552061
vt 0.625000 0.695458
vt 0.125673 0.508237
vt 0.289286 0.508237
vt 0.289286 0.552061
vt 0.125673 0.552061
vt 0.289286 0.695458
vt 0.125673 0.695458
vt 0.375000 0.250673
vt 0.625000 0.250673
vt 0.625000 0.414286
vt 0.375000 0.414286
vt 0.125673 0.741116
vt 0.289286 0.741116
vt 0.289286 0.750000
vt 0.125673 0.750000
vt 0.375000 0.762363
vt 0.625000 0.762363
vt 0.625000 0.835714
vt 0.375000 0.835714
vt 0.625000 0.999327
vt 0.625000 0.835714
vt 0.625000 0.999327
vt 0.375000 0.835714
vt 0.375000 0.414286
vt 0.375000 0.250673
vt 0.625000 0.414286
vt 0.289286 0.500000
vt 0.362637 0.500000
vt 0.125673 0.500000
vt 0.375000 0.999327
vt 0.375000 0.999327
vt 0.362637 0.741116
vt 0.362637 0.750000
vt 0.375000 0.750000
vt 0.375000 0.741116
vt 0.625000 0.750000
vt 0.625000 0.741116
vt 0.375000 0.487637
vt 0.375000 0.500000
vt 0.625000 0.500000
vt 0.625000 0.487637
vt 0.375000 0.552061
vt 0.375000 0.695458
vt 0.625000 0.695458
vt 0.625000 0.552061
vt 0.362637 0.552061
vt 0.362637 0.695458
vt 0.375000 0.695458
vt 0.375000 0.552061
vt 0.362637 0.508237
vt 0.375000 0.508237
vt 0.625000 0.552061
vt 0.625000 0.508237
vt 0.625000 0.695458
vt 0.289286 0.552061
vt 0.289286 0.508237
vt 0.289286 0.695458
vt 0.375000 0.414286
vt 0.625000 0.414286
vt 0.289286 0.750000
vt 0.289286 0.741116
vt 0.375000 0.762363
vt 0.375000 0.835714
vt 0.625000 0.835714
vt 0.625000 0.762363
vt 0.625000 0.835714
vt 0.375000 0.835714
vt 0.375000 0.414286
vt 0.625000 0.414286
vt 0.289286 0.500000
vt 0.362637 0.500000
vt 0.637363 0.508237
vt 0.710714 0.508237
vt 0.710714 0.552061
vt 0.637363 0.552061
vt 0.710714 0.695458
vt 0.637363 0.695458
vt 0.637363 0.741116
vt 0.710714 0.741116
vt 0.710714 0.750000
vt 0.637363 0.750000
vt 0.625000 0.741116
vt 0.625000 0.750000
vt 0.625000 0.552061
vt 0.625000 0.695458
vt 0.625000 0.508237
vt 0.625000 0.500000
vt 0.637363 0.500000
vt 0.710714 0.500000
vt 0.625000 0.741116
vt 0.625000 0.750000
vt 0.625000 0.750000
vt 0.625000 0.741116
vt 0.637363 0.500000
vt 0.625000 0.500000
vt 0.625000 0.500000
vt 0.637363 0.500000
vt 0.625000 0.552061
vt 0.625000 0.695458
vt 0.625000 0.695458
vt 0.625000 0.552061
vt 0.625000 0.508237
vt 0.625000 0.508237
vt 0.637363 0.750000
vt 0.710714 0.750000
vt 0.710714 0.750000
vt 0.637363 0.750000
vt 0.625000 0.250665
vt 0.625000 0.414286
vt 0.625000 0.414286
vt 0.625000 0.250665
vt 0.625000 0.414286
vt 0.625000 0.414286
vt 0.710714 0.500000
vt 0.710714 0.500000
vt 0.637363 0.500000
vt 0.710714 0.750000
vt 0.637363 0.750000
vt 0.710714 0.500000
vt 0.868098 0.750000
vt 0.710714 0.750000
vt 0.710714 0.750000
vt 0.874294 0.750000
vt 0.625000 0.414286
vt 0.625000 0.414286
vt 0.710714 0.508237
vt 0.710714 0.552061
vt 0.710714 0.695458
vt 0.710714 0.741116
vt 0.710714 0.500000
vt 0.625000 0.414286
vt 0.625000 0.414286
vt 0.625000 0.256959
vt 0.625000 0.414286
vt 0.874327 0.750000
vt 0.874327 0.750000
vt 0.625000 0.250706
vt 0.874294 0.741116
vt 0.874294 0.508237
vt 0.874294 0.552061
vt 0.874294 0.695458
vt 0.625000 0.250706
vt 0.874294 0.500000
vt 0.874327 0.750000
vt 0.637363 0.508237
vt 0.637363 0.552061
vt 0.710714 0.552061
vt 0.710714 0.508237
vt 0.637363 0.695458
vt 0.710714 0.695458
vt 0.637363 0.741116
vt 0.637363 0.750000
vt 0.710714 0.750000
vt 0.710714 0.741116
vt 0.625000 0.741116
vt 0.625000 0.750000
vt 0.625000 0.552061
vt 0.625000 0.695458
vt 0.625000 0.508237
vt 0.625000 0.500000
vt 0.637363 0.500000
vt 0.710714 0.500000
vt 0.625000 0.741116
vt 0.625000 0.741116
vt 0.625000 0.750000
vt 0.625000 0.750000
vt 0.637363 0.500000
vt 0.637363 0.500000
vt 0.625000 0.500000
vt 0.625000 0.500000
vt 0.625000 0.552061
vt 0.625000 0.552061
vt 0.625000 0.695458
vt 0.625000 0.695458
vt 0.625000 0.508237
vt 0.625000 0.508237
vt 0.637363 0.750000
vt 0.637363 0.750000
vt 0.710714 0.750000
vt 0.710714 0.750000
vt 0.625000 0.414286
vt 0.625000 0.414286
vt 0.625000 0.414286
vt 0.625000 0.414286
vt 0.710714 0.500000
vt 0.710714 0.500000
vt 0.637363 0.500000
vt 0.637363 0.750000
vt 0.710714 0.750000
vt 0.710714 0.500000
vt 0.710714 0.750000
vt 0.710714 0.750000
vt 0.625000 0.414286
vt 0.625000 0.414286
vt 0.710714 0.508237
vt 0.710714 0.552061
vt 0.710714 0.695458
vt 0.710714 0.741116
vt 0.710714 0.500000
vt 0.625000 0.414286
vt 0.625000 0.414286
vt 0.625000 0.414286
vn -0.0161 -0.9997 -0.0186
vn 0.7810 0.0000 0.6245
vn 0.5652 -0.0000 -0.8250
vn 0.9993 -0.0369 0.0000
vn 0.0000 -1.0000 0.0000
vn -0.0014 -1.0000 -0.0037
vn -0.0021 -1.0000 -0.0040
vn 1.0000 0.0000 0.0000
vn 0.0000 1.0000 0.0000
vn 0.0000 0.0000 1.0000
vn 0.0000 -0.0000 -1.0000
vn -0.0010 -1.0000 -0.0013
vn 0.0000 -0.0299 -0.9996
vn -0.0033 -1.0000 -0.0026
vn -0.0030 -1.0000 -0.0017
vn -0.0021 0.0000 1.0000
vn 0.5526 0.0000 0.8334
vn -0.0058 -1.0000 -0.0071
vn -0.0091 -0.9999 -0.0051
vn 1.0000 0.0000 -0.0030
vn -0.0041 -0.9999 -0.0111
vn 0.7380 -0.0000 -0.6748
vn 0.0000 -0.0367 0.9993
vn 0.0161 -0.9997 -0.0186
vn -0.7810 0.0000 0.6245
vn -0.5652 -0.0000 -0.8250
vn -0.9993 -0.0369 0.0000
vn 0.0021 -1.0000 -0.0040
vn 0.0014 -1.0000 -0.0037
vn -1.0000 0.0000 0.0000
vn 0.0010 -1.0000 -0.0013
vn 0.0030 -1.0000 -0.0017
vn 0.0033 -1.0000 -0.0026
vn 0.0021 0.0000 1.0000
vn -0.5526 0.0000 0.8334
vn 0.0091 -0.9999 -0.0051
vn 0.0058 -1.0000 -0.0071
vn -1.0000 0.0000 -0.0030
vn 0.0041 -0.9999 -0.0111
vn -0.7380 -0.0000 -0.6748
vn -0.0021 1.0000 -0.0026
vn -0.0021 1.0000 -0.0040
vn -0.0057 1.0000 -0.0073
vn -0.0066 1.0000 -0.0054
vn -0.0094 1.0000 -0.0026
vn -0.0100 0.9999 -0.0038
vn -0.0161 0.9997 -0.0186
vn -0.0010 1.0000 -0.0057
vn -0.0026 0.9999 -0.0121
vn 0.9827 0.0000 0.1852
vn 0.1735 0.0000 -0.9848
vn 1.0000 0.0000 -0.0015
vn -0.0010 0.0000 1.0000
vn 0.1638 0.0000 0.9865
vn 0.8764 0.0000 -0.4816
vn -0.0033 -1.0000 0.0063
vn -0.0029 -1.0000 0.0063
vn 0.0077 -1.0000 -0.0007
vn -0.0002 -0.9999 0.0114
vn 0.0000 -1.0000 0.0060
vn 0.0083 -1.0000 -0.0013
vn 0.0049 -1.0000 0.0000
vn 0.0095 -1.0000 -0.0002
vn 0.0029 1.0000 -0.0063
vn 0.0033 1.0000 -0.0063
vn -0.0077 1.0000 0.0008
vn 0.0000 1.0000 -0.0060
vn -0.0098 1.0000 0.0003
vn -0.0083 1.0000 0.0015
vn 0.6245 0.7810 0.0000
vn 0.6591 0.7511 0.0383
vn 0.7518 0.6551 -0.0744
vn 0.5670 0.8095 0.1527
vn 0.0000 0.9539 0.3003
vn 0.0021 1.0000 -0.0040
vn 0.0021 1.0000 -0.0026
vn 0.0057 1.0000 -0.0073
vn 0.0100 0.9999 -0.0038
vn 0.0094 1.0000 -0.0026
vn 0.0066 1.0000 -0.0054
vn 0.0161 0.9997 -0.0186
vn 0.0010 1.0000 -0.0057
vn 0.0026 0.9999 -0.0121
vn -0.9827 0.0000 0.1852
vn -0.1735 0.0000 -0.9848
vn -1.0000 0.0000 -0.0015
vn 0.0010 0.0000 1.0000
vn -0.1638 0.0000 0.9865
vn -0.8764 0.0000 -0.4816
vn 0.0033 -1.0000 0.0063
vn 0.0002 -0.9999 0.0114
vn -0.0077 -1.0000 -0.0007
vn 0.0029 -1.0000 0.0063
vn -0.0083 -1.0000 -0.0013
vn -0.0096 -1.0000 -0.0002
vn -0.0049 -1.0000 0.0000
vn -0.0029 1.0000 -0.0063
vn 0.0077 1.0000 0.0007
vn -0.0033 1.0000 -0.0063
vn 0.0098 1.0000 0.0003
vn 0.0083 1.0000 0.0015
vn -0.6245 0.7810 0.0000
vn -0.6591 0.7511 0.0383
vn -0.7518 0.6551 -0.0744
vn -0.5670 0.8095 0.1527
usemtl Материал.001
s 1
f 1/1/1 2/2/1 3/3/1 4/4/1
f 2/2/2 5/5/2 6/6/2 3/3/2
f 7/7/3 8/8/3 9/9/3 10/10/3
f 11/11/4 12/12/4 13/13/4 14/14/4
f 15/15/5 16/16/5 17/17/6 18/18/7
f 19/19/5 20/20/5 16/16/5 15/15/5
f 20/20/8 21/21/8 22/22/8 16/16/8
f 13/13/9 12/12/9 22/22/9 23/23/9
f 14/14/10 13/13/10 23/23/10 17/17/10
f 11/11/5 14/14/5 17/17/6 16/16/5
f 12/12/11 11/11/11 16/16/11 22/22/11
f 24/24/5 25/25/5 26/26/5 27/27/5
f 27/27/5 26/26/5 34/28/12 35/29/5
f 36/30/13 37/31/13 38/32/13 39/33/13
f 40/34/5 41/35/14 42/36/15 43/37/5
f 4/38/16 44/39/16 45/40/16 42/41/16
f 50/42/9 51/43/9 45/40/9 52/44/9
f 51/43/8 53/45/8 42/41/8 45/40/8
f 36/30/5 39/33/5 54/46/5 55/47/5
f 39/33/8 38/32/8 56/48/8 54/46/8
f 3/3/17 6/6/17 44/39/17 4/38/17
f 25/25/5 19/19/5 15/15/5 26/26/5
f 26/26/5 15/15/5 18/18/7 34/28/12
f 54/46/11 56/48/11 8/8/11 7/7/11
f 41/35/14 1/1/18 4/4/19 42/36/15
f 34/28/12 18/18/7 1/1/18 41/35/14
f 35/29/5 34/28/12 41/35/14 40/34/5
f 17/17/20 23/23/20 5/5/20 2/2/20
f 18/18/7 17/17/6 2/2/21 1/1/18
f 54/49/5 7/50/5 19/19/5 25/25/5
f 55/51/5 54/49/5 25/25/5 24/24/5
f 10/10/22 9/9/22 21/21/22 20/20/22
f 7/50/5 10/10/5 20/20/5 19/19/5
f 53/45/23 51/43/23 50/42/23 106/52/23
f 53/45/5 106/52/5 43/53/5 42/41/15
f 111/54/24 112/55/24 113/56/24 114/57/24
f 114/57/25 113/56/25 115/58/25 116/59/25
f 117/60/26 118/61/26 119/62/26 120/63/26
f 121/64/27 122/65/27 123/66/27 124/67/27
f 125/68/5 126/69/28 127/70/29 128/71/5
f 129/72/5 125/68/5 128/71/5 130/73/5
f 130/73/30 128/71/30 131/74/30 132/75/30
f 123/66/9 133/76/9 131/74/9 124/67/9
f 122/65/10 127/70/10 133/76/10 123/66/10
f 121/64/5 128/71/5 127/70/29 122/65/5
f 124/67/11 131/74/11 128/71/11 121/64/11
f 24/24/5 27/27/5 134/77/5 135/78/5
f 27/27/5 35/29/5 142/79/31 134/77/5
f 36/30/13 143/80/13 144/81/13 37/31/13
f 40/34/5 43/37/5 145/82/32 146/83/33
f 112/84/34 145/85/34 147/86/34 148/87/34
f 50/42/9 52/44/9 147/86/9 153/88/9
f 153/88/30 147/86/30 145/85/30 154/89/30
f 36/30/5 55/47/5 155/90/5 143/80/5
f 143/80/30 155/90/30 156/91/30 144/81/30
f 113/56/35 112/84/35 148/87/35 115/58/35
f 135/78/5 134/77/5 125/68/5 129/72/5
f 134/77/5 142/79/31 126/69/28 125/68/5
f 155/90/11 117/60/11 120/63/11 156/91/11
f 146/83/33 145/82/32 112/55/36 111/54/37
f 142/79/31 146/83/33 111/54/37 126/69/28
f 35/29/5 40/34/5 146/83/33 142/79/31
f 127/70/38 114/57/38 116/59/38 133/76/38
f 126/69/28 111/54/37 114/57/39 127/70/29
f 155/92/5 135/78/5 129/72/5 117/93/5
f 55/51/5 24/24/5 135/78/5 155/92/5
f 118/61/40 130/73/40 132/75/40 119/62/40
f 117/93/5 129/72/5 130/73/5 118/61/5
f 154/89/23 106/52/23 50/42/23 153/88/23
f 154/89/5 145/85/32 43/53/5 106/52/5
usemtl Материал.002
f 28/94/9 29/95/9 30/96/9 31/97/9
f 31/97/9 30/96/9 32/98/41 33/99/42
f 46/100/43 47/101/44 48/102/45 49/103/46
f 57/104/47 46/100/47 49/103/47 58/105/47
f 59/106/9 31/97/9 33/99/42 60/107/48
f 61/108/9 28/94/9 31/97/9 59/106/9
f 60/107/48 33/99/42 46/100/43 57/104/49
f 33/99/42 32/98/41 47/101/44 46/100/43
f 62/109/9 63/110/9 28/94/9 61/108/9
f 63/110/9 64/111/9 29/95/9 28/94/9
f 65/112/50 66/113/50 67/114/50 68/115/50
f 69/116/51 70/117/51 71/118/51 72/119/51
f 73/120/8 74/121/52 75/122/52 76/123/8
f 77/124/8 73/120/8 76/123/8 78/125/8
f 79/126/16 80/127/53 81/128/53 82/129/16
f 83/130/11 84/131/11 85/132/11 86/133/11
f 84/131/8 87/134/8 88/135/8 85/132/8
f 87/136/11 69/116/11 72/119/11 88/137/11
f 66/113/54 79/126/54 82/129/54 67/114/54
f 74/121/52 65/112/20 68/115/20 75/122/52
f 70/117/55 77/124/55 78/125/55 71/118/55
f 68/115/56 67/114/57 6/6/58 5/5/59
f 72/119/5 71/118/5 9/9/5 8/138/5
f 76/123/5 75/122/60 23/23/60 22/22/5
f 78/125/5 76/123/5 22/22/5 21/21/5
f 82/129/61 81/128/62 45/139/62 44/140/63
f 86/133/5 85/132/5 38/32/5 37/31/5
f 85/132/5 88/135/5 56/48/5 38/32/5
f 88/137/5 72/119/5 8/138/5 56/141/5
f 67/114/57 82/129/61 44/140/63 6/6/58
f 75/122/60 68/115/56 5/5/59 23/23/60
f 71/118/5 78/125/5 21/21/5 9/9/5
f 89/142/9 90/143/9 91/144/9 92/145/9
f 66/113/64 65/112/65 57/104/49 58/105/66
f 70/117/9 69/116/9 63/110/9 62/109/9
f 74/121/67 73/120/9 59/106/9 60/107/48
f 73/120/9 77/124/9 61/108/9 59/106/9
f 80/127/68 79/126/69 49/103/46 48/102/45
f 87/134/9 84/131/9 93/146/9 64/147/9
f 69/116/9 87/136/9 64/111/9 63/110/9
f 79/126/69 66/113/64 58/105/66 49/103/46
f 65/112/65 74/121/67 60/107/48 57/104/49
f 77/124/9 70/117/9 62/109/9 61/108/9
f 94/148/70 95/149/70 30/96/70 29/95/70
f 95/149/70 96/150/70 32/98/70 30/96/70
f 97/151/71 91/144/71 48/102/71 47/101/71
f 96/150/70 97/151/70 47/101/70 32/98/70
f 98/152/70 94/148/70 29/95/70 64/111/70
f 99/153/70 98/154/70 64/147/70 93/146/70
f 100/155/11 101/156/11 84/131/11 83/130/11
f 91/144/72 90/143/72 80/127/72 48/102/72
f 101/156/73 99/153/73 93/146/73 84/131/73
f 90/143/74 89/142/74 102/157/74 80/127/74
f 80/127/53 102/157/10 103/158/10 81/128/53
f 101/156/9 100/155/9 104/159/9 99/153/9
f 97/151/9 105/160/9 92/145/9 91/144/9
f 94/148/9 107/161/9 108/162/9 95/149/9
f 95/149/9 108/162/9 109/163/9 96/150/9
f 96/150/9 109/163/9 105/160/9 97/151/9
f 99/153/9 104/159/9 110/164/9 98/154/9
f 98/152/9 110/165/9 107/161/9 94/148/9
f 81/128/62 103/158/5 52/166/5 45/139/62
f 136/167/9 137/168/9 138/169/9 139/170/9
f 137/168/9 140/171/75 141/172/76 138/169/9
f 149/173/77 150/174/78 151/175/79 152/176/80
f 157/177/81 158/178/81 150/174/81 149/173/81
f 159/179/9 160/180/82 140/171/75 137/168/9
f 161/181/9 159/179/9 137/168/9 136/167/9
f 160/180/82 157/177/83 149/173/77 140/171/75
f 140/171/75 149/173/77 152/176/80 141/172/76
f 162/182/9 161/181/9 136/167/9 163/183/9
f 163/183/9 136/167/9 139/170/9 164/184/9
f 165/185/84 166/186/84 167/187/84 168/188/84
f 169/189/85 170/190/85 171/191/85 172/192/85
f 173/193/30 174/194/30 175/195/86 176/196/86
f 177/197/30 178/198/30 174/194/30 173/193/30
f 179/199/34 180/200/34 181/201/87 182/202/87
f 83/130/11 86/133/11 183/203/11 184/204/11
f 184/204/30 183/203/30 185/205/30 186/206/30
f 186/207/11 185/208/11 170/190/11 169/189/11
f 168/188/88 167/187/88 180/200/88 179/199/88
f 176/196/86 175/195/86 166/186/38 165/185/38
f 172/192/89 171/191/89 178/198/89 177/197/89
f 166/186/90 116/59/91 115/58/92 167/187/93
f 170/190/5 120/209/5 119/62/5 171/191/5
f 174/194/5 131/74/5 133/76/60 175/195/60
f 178/198/5 132/75/5 131/74/5 174/194/5
f 180/200/94 148/210/95 147/211/96 181/201/96
f 86/133/5 37/31/5 144/81/5 183/203/5
f 183/203/5 144/81/5 156/91/5 185/205/5
f 185/208/5 156/212/5 120/209/5 170/190/5
f 167/187/93 115/58/92 148/210/95 180/200/94
f 175/195/60 133/76/60 116/59/91 166/186/90
f 171/191/5 119/62/5 132/75/5 178/198/5
f 89/142/9 92/145/9 187/213/9 188/214/9
f 168/188/97 158/178/98 157/177/83 165/185/99
f 172/192/9 162/182/9 163/183/9 169/189/9
f 176/196/67 160/180/82 159/179/9 173/193/9
f 173/193/9 159/179/9 161/181/9 177/197/9
f 182/202/100 151/175/79 150/174/78 179/199/101
f 186/206/9 164/215/9 189/216/9 184/204/9
f 169/189/9 163/183/9 164/184/9 186/207/9
f 179/199/101 150/174/78 158/178/98 168/188/97
f 165/185/99 157/177/83 160/180/82 176/196/67
f 177/197/9 161/181/9 162/182/9 172/192/9
f 190/217/102 139/170/102 138/169/102 191/218/102
f 191/218/102 138/169/102 141/172/102 192/219/102
f 193/220/103 152/176/103 151/175/103 187/213/103
f 192/219/102 141/172/102 152/176/102 193/220/102
f 194/221/102 164/184/102 139/170/102 190/217/102
f 195/222/102 189/216/102 164/215/102 194/223/102
f 100/155/11 83/130/11 184/204/11 196/224/11
f 187/213/104 151/175/104 182/202/104 188/214/104
f 196/224/105 184/204/105 189/216/105 195/222/105
f 188/214/74 182/202/74 102/157/74 89/142/74
f 182/202/87 181/201/87 103/158/10 102/157/10
f 196/224/9 195/222/9 104/159/9 100/155/9
f 193/220/9 187/213/9 92/145/9 105/160/9
f 190/217/9 191/218/9 108/162/9 107/161/9
f 191/218/9 192/219/9 109/163/9 108/162/9
f 192/219/9 193/220/9 105/160/9 109/163/9
f 195/222/9 194/223/9 110/164/9 104/159/9
f 194/221/9 190/217/9 107/161/9 110/165/9
f 181/201/96 147/211/96 52/166/5 103/158/5
